<?xml version="1.0" ?><!DOCTYPE svg  PUBLIC '-//W3C//DTD SVG 1.1//EN'  'http://www.w3.org/Graphics/SVG/1.1/DTD/svg11.dtd'><svg height="512px" style="enable-background:new 0 0 512 512;" version="1.1" viewBox="0 0 512 512" width="512px" xml:space="preserve" xmlns="http://www.w3.org/2000/svg" xmlns:xlink="http://www.w3.org/1999/xlink"><g id="_x37_-windows_media_player_x2C__video"><g><g><path d="M464.777,256c0,115.617-93.475,209.339-208.775,209.339     c-115.305,0-208.778-93.722-208.778-209.339S140.697,46.662,256.002,46.662C371.303,46.662,464.777,140.383,464.777,256     L464.777,256z M464.777,256" style="fill:#FCFCFC;"/><path d="M338.467,243.32l-119.301-74.767c-4.594-2.9-10.439-3.021-15.121-0.421     c-4.744,2.667-7.693,7.661-7.693,13.104v149.529c0,5.443,2.949,10.468,7.693,13.098c2.234,1.228,4.736,1.856,7.213,1.856     c2.746,0,5.49-0.751,7.908-2.275l119.301-74.765c4.352-2.724,7.008-7.537,7.008-12.68S342.818,246.038,338.467,243.32     L338.467,243.32z M338.467,243.32" style="fill:#2299F8;"/><path d="M77.045,256H17.397c0-131.917,107.044-239.25,238.605-239.25v59.812     C157.31,76.563,77.045,157.042,77.045,256L77.045,256z M77.045,256" style="fill:#F84437;"/><path d="M256.002,495.25v-59.816c98.689,0,178.947-80.476,178.947-179.434h59.654     C494.604,387.915,387.561,495.25,256.002,495.25L256.002,495.25z M256.002,495.25" style="fill:#FFC107;"/><path d="M256.002,495.25C124.441,495.25,17.397,387.915,17.397,256h59.648     c0,98.958,80.265,179.434,178.957,179.434V495.25z M256.002,495.25" style="fill:#2299F8;"/><path d="M494.604,256h-59.654c0-98.958-80.258-179.438-178.947-179.438V16.75     C387.561,16.75,494.604,124.083,494.604,256L494.604,256z M494.604,256" style="fill:#5ACF5F;"/></g></g></g><g id="Layer_1"/></svg>