<svg width="130" height="152" viewBox="0 0 130 152" fill="none" xmlns="http://www.w3.org/2000/svg">
<path d="M65.3841 1.49298C63.2372 0.545827 60.7827 0.588995 58.6705 1.61105L4.51551 27.8151C1.75415 29.1512 0 31.9487 0 35.0163L0 116.984C0 120.051 1.75415 122.849 4.51551 124.185L58.6705 150.389C60.7827 151.411 63.2372 151.454 65.3841 150.507L125.229 124.105C128.129 122.825 130 119.955 130 116.785V35.2145C130 32.0451 128.129 29.1745 125.229 27.8952L65.3841 1.49298Z" fill="#AA4FF6"/>
<path d="M66.1341 30.493C63.9872 29.5458 61.5327 29.589 59.4205 30.6111L28.5155 45.5651C25.7541 46.9012 24 49.6987 24 52.7663V100.234C24 103.301 25.7542 106.099 28.5155 107.435L59.4205 122.389C61.5327 123.411 63.9872 123.454 66.1341 122.507L100.479 107.355C103.379 106.075 105.25 103.205 105.25 100.035V52.9645C105.25 49.7951 103.379 46.9245 100.479 45.6452L66.1341 30.493Z" fill="white"/>
<path d="M88.5 75.134C89.1667 75.5189 89.1667 76.4811 88.5 76.866L54 96.7846C53.3333 97.1695 52.5 96.6884 52.5 95.9186V56.0814C52.5 55.3116 53.3333 54.8305 54 55.2154L88.5 75.134Z" fill="#7827E6"/>
</svg>
